<svg id="Layer_1" data-name="Layer 1" xmlns="http://www.w3.org/2000/svg" viewBox="0 0 303.71 81.86"><defs><style>.cls-1{fill:#231f20;}.cls-2{fill:#fff;}.cls-3{fill:#ee3124;}</style></defs><title>adobe_logo</title><rect class="cls-1" width="303.71" height="81.86"/><path class="cls-2" d="M222.59,179.13l-3.1,15.57H208.07l14.25-64.8h14l12.94,64.8H237.77l-3-15.57ZM233.64,170l-2.38-14c-.68-4-1.55-10.36-2.21-14.74h-.25c-.71,4.41-1.67,10.91-2.39,14.77l-2.55,14Z" transform="translate(-117 -120.77)"/><path class="cls-2" d="M287,128.18v53.09c0,4.21.22,9.39.39,13.43H277.23l-.66-5.4h-.24a11.27,11.27,0,0,1-9.81,6.18c-9.7,0-14.5-10.67-14.5-24.13,0-16.4,7.16-24.37,15-24.37a8.3,8.3,0,0,1,8.06,4.88h.19V128.18Zm-11.72,37.58a15.77,15.77,0,0,0-.17-2.79c-.45-3.2-2.16-6.08-4.91-6.08-4.71,0-6.44,6.78-6.44,14.68,0,9.1,2.47,14.28,6.27,14.28,1.75,0,3.75-.9,4.85-4.71a9.57,9.57,0,0,0,.4-3Z" transform="translate(-117 -120.77)"/><path class="cls-2" d="M311.14,195.47c-10.8,0-17.58-8.66-17.58-24.12,0-16.87,8.69-24.38,17.84-24.38,10.65,0,17.34,9.07,17.34,24.12,0,19.33-10.46,24.39-17.51,24.39Zm.22-9c4.48,0,5.58-8.4,5.58-15.36,0-6.61-1.11-15.23-5.77-15.23-4.95,0-6,8.61-6,15.23,0,8,1.32,15.36,6.08,15.36Z" transform="translate(-117 -120.77)"/><path class="cls-2" d="M335.3,128.18H347v24.48h.19c2.31-3.62,5.38-5.68,9.85-5.68,8.84,0,13.26,10,13.26,23.09,0,16.54-6.62,25.41-15.19,25.41-4.1,0-6.82-1.82-9.26-6.39h-.24L345,194.7H334.91c.17-3.91.39-9.22.39-13.43ZM347,177.94a9.56,9.56,0,0,0,.47,3c1.17,3.94,3.18,4.9,4.77,4.9,4.51,0,6.36-5.73,6.36-14.89,0-8.32-1.93-14.07-6.41-14.07-2.22,0-4.09,2.41-4.73,5a12.33,12.33,0,0,0-.44,3Z" transform="translate(-117 -120.77)"/><path class="cls-2" d="M386.6,175c.14,8.49,4.63,11.25,10.17,11.25a24.68,24.68,0,0,0,8.79-1.62l1.58,8.41a34.33,34.33,0,0,1-12.5,2.18c-12.58,0-19.45-8.57-19.45-23.19,0-15.7,8-25.13,18.37-25.13,10,0,15.63,8.32,15.63,21.94a42.47,42.47,0,0,1-.34,6.22Zm11.81-8.26c.06-6.58-1.87-11.22-5.59-11.22-4.24,0-6,6.2-6.19,11.22Z" transform="translate(-117 -120.77)"/><polygon class="cls-3" points="53.87 8.74 80.94 8.74 80.94 73.31 53.87 8.74"/><polygon class="cls-3" points="34.8 8.74 7.71 8.74 7.71 73.31 34.8 8.74"/><polygon class="cls-3" points="44.34 32.54 61.59 73.31 50.28 73.31 45.12 60.33 32.5 60.33 44.34 32.54"/><path class="cls-2" d="M411.25,146.45a3.43,3.43,0,0,1,0,6.86,3.43,3.43,0,1,1,0-6.86Zm0,.58a2.85,2.85,0,1,0,2.74,2.85,2.79,2.79,0,0,0-2.74-2.85Zm-.63,4.84h-.69V148a7,7,0,0,1,1.15-.11,2,2,0,0,1,1.24.31,1,1,0,0,1,.34.79.92.92,0,0,1-.73.91v0c.34.06.55.37.63.93a3.49,3.49,0,0,0,.23.95h-.7a3,3,0,0,1-.24-1,.7.7,0,0,0-.81-.64h-.4Zm0-2.15H411c.51,0,.92-.17.92-.61s-.24-.64-.89-.64a3.47,3.47,0,0,0-.44,0Z" transform="translate(-117 -120.77)"/></svg>